<svg width="52" height="52" viewBox="0 0 52 52" fill="none" xmlns="http://www.w3.org/2000/svg">
<g clip-path="url(#clip0_7_56)">
<path d="M26 48.75C40.3609 48.75 52 37.832 52 24.375C52 10.918 40.3609 0 26 0C11.6391 0 0 10.918 0 24.375C0 29.8898 1.95 34.968 5.24062 39.0508L0.284375 48.425C-0.203125 49.3391 -0.0507812 50.4562 0.65 51.218C1.35078 51.9797 2.45781 52.2133 3.40234 51.807L15.4273 46.6578C18.657 47.9984 22.232 48.75 26 48.75ZM22.1 15.6C22.1 14.5234 22.9734 13.65 24.05 13.65H27.95C29.0266 13.65 29.9 14.5234 29.9 15.6V20.475H34.775C35.8516 20.475 36.725 21.3484 36.725 22.425V26.325C36.725 27.4016 35.8516 28.275 34.775 28.275H29.9V33.15C29.9 34.2266 29.0266 35.1 27.95 35.1H24.05C22.9734 35.1 22.1 34.2266 22.1 33.15V28.275H17.225C16.1484 28.275 15.275 27.4016 15.275 26.325V22.425C15.275 21.3484 16.1484 20.475 17.225 20.475H22.1V15.6Z" fill="#019A6A"/>
</g>
<defs>
<clipPath id="clip0_7_56">
<rect width="52" height="52" fill="white"/>
</clipPath>
</defs>
</svg>
